<?xml version="1.0" encoding="utf-8"?>
<svg width="32px" height="35px" viewbox="0 0 32 35" version="1.1" xmlns:xlink="http://www.w3.org/1999/xlink" xmlns="http://www.w3.org/2000/svg">
  <g id="Swallow-Logo">
    <path d="M30.2916 17.004C29.6442 17.7936 29.4185 17.8991 28.4727 18.9386C26.1008 21.5474 23.6712 23.6254 22.1904 24.6859C19.7986 26.3965 17.9677 27.6302 13.214 28.4805C13.214 28.4805 4.10134 34.7794 1.99896 34.6629C1.99896 34.6629 6.06251 32.4594 7.73327 31.1062C7.73327 31.1062 1.99896 34.6629 0 34.7794C0 34.7794 12.3697 28.2455 15.9399 23.3646C15.9399 23.3646 10.2742 22.7502 7.6746 17.7786C7.25989 16.9851 6.70893 16.2731 6.07941 15.6369C4.48423 14.0258 0.805549 10.4741 2.46737 0.240226C2.47831 0.178492 2.50814 0.117754 2.55787 0.0779253C2.71003 -0.0435511 3.07899 -0.159053 3.60608 0.856569C4.50511 2.5891 12.0932 12.4655 17.1383 15.5463C17.1383 15.5463 16.8171 12.3212 17.2189 9.10402C17.5391 6.54405 18.7673 2.89279 19.7777 4.66217C21.3829 7.47405 23.4425 10.9959 24.7682 15.2894C26.236 13.9631 28.4777 13.7779 29.7904 15.38C29.8968 15.5094 29.9794 15.6289 30.037 15.7315C30.3195 16.2273 30.2499 16.2512 31.1221 16.4504C31.1221 16.4504 30.585 16.5997 30.2916 17.004" transform="matrix(1 0 0 1 7.1054274E-15 -6.039613E-14)" id="Fill-127" fill="#231F20" fill-rule="evenodd" stroke="none" />
  </g>
</svg>