<?xml version="1.0" encoding="utf-8"?>
<svg width="117px" height="20px" viewbox="0 0 117 20" version="1.1" xmlns:xlink="http://www.w3.org/1999/xlink" xmlns="http://www.w3.org/2000/svg">
  <g id="Wordmark">
    <g id="Wordmark">
      <path d="M5.41107 14.745C5.41107 16.138 4.96587 16.635 4.02675 16.635L2.51921 16.635L2.51921 10.518L3.77931 10.518C4.71941 10.518 5.41107 11.016 5.41107 12.408L5.41107 14.745ZM2.51921 2.412L3.77931 2.412C4.71941 2.412 5.16363 2.909 5.16363 4.302L5.16363 6.217C5.16363 7.609 4.71941 8.106 3.77931 8.106L2.51921 8.106L2.51921 2.412ZM5.88113 9.275C7.21477 8.753 7.68383 7.683 7.68383 6.391L7.68383 3.978C7.68383 1.219 6.15243 0 4.24936 0L0 0L0 19.047L4.49681 19.047C6.39888 19.047 7.93127 17.829 7.93127 15.068L7.93127 12.334C7.93127 10.916 7.41253 9.847 5.88113 9.275L5.88113 9.275Z" transform="translate(-6.3948846E-14 0.3238)" id="Fill-78" fill="#FFFFFF" fill-rule="evenodd" stroke="none" />
      <path d="M2.5202 0L0 0L0 19.047L5.5343 19.047L5.5343 16.635L2.5202 16.635L2.5202 0Z" transform="translate(9.080568 0.3237)" id="Fill-79" fill="#FFFFFF" fill-rule="evenodd" stroke="none" />
      <path d="M3.2864 12.408L4.39842 2.909L5.51045 12.408L3.2864 12.408ZM2.54504 0L0 19.047L2.5202 19.047L3.0151 14.82L5.80759 14.82L6.30149 19.047L8.82169 19.047L6.2518 0L2.54504 0Z" transform="translate(15.319354 0.3239)" id="Fill-80" fill="#FFFFFF" fill-rule="evenodd" stroke="none" />
      <path d="M4.0029 0C1.77984 0 0 1.169 0 3.979L0 15.715C0 18.525 1.80369 19.693 3.92936 19.693C6.00535 19.693 7.80805 18.575 7.80805 15.715L7.80805 13.005L5.28785 13.005L5.28785 15.392C5.28785 16.784 4.59618 17.282 3.90353 17.282C3.21186 17.282 2.5202 16.784 2.5202 15.392L2.5202 4.302C2.5202 2.909 3.21186 2.412 3.90353 2.412C4.59618 2.412 5.28785 2.909 5.28785 4.302L5.28785 6.963L7.80805 6.963L7.80805 3.805C7.80805 0.945 5.97951 0 4.0029 0" transform="translate(25.00632 0.0004)" id="Fill-81" fill="#FFFFFF" fill-rule="evenodd" stroke="none" />
      <path d="M0 19.047L2.5202 19.047L2.5202 0L0 0L0 19.047Z" transform="translate(34.445442 0.3236)" id="Fill-82" fill="#FFFFFF" fill-rule="evenodd" stroke="none" />
      <path d="M5.5343 0L3.0141 0L0 9.523L3.48416 19.047L6.00435 19.047L2.66827 9.449L5.5343 0Z" transform="translate(36.991776 0.3237)" id="Fill-83" fill="#FFFFFF" fill-rule="evenodd" stroke="none" />
      <path d="M3.90452 0C1.80469 0 0 1.169 0 3.979L0 6.366C0 9.972 5.28884 11.712 5.28884 13.825L5.28884 15.392C5.28884 16.784 4.59618 17.282 3.90452 17.282C3.21286 17.282 2.5202 16.784 2.5202 15.392L2.5202 14.798L0 14.798L0 15.715C0 18.426 1.60593 19.693 3.90452 19.693C6.20311 19.693 7.80904 18.476 7.80904 15.715L7.80904 13.304C7.80904 9.748 2.5202 8.777 2.5202 5.894L2.5202 4.302C2.5202 2.909 3.21286 2.412 3.90452 2.412C4.59618 2.412 5.28884 2.909 5.28884 4.302L5.28884 4.896L7.80904 4.896L7.80904 3.979C7.80904 1.119 6.32634 0 3.90452 0" transform="translate(46.990986 0.0004)" id="Fill-84" fill="#FFFFFF" fill-rule="evenodd" stroke="none" />
      <path d="M12.1329 0L10.7248 14.721L9.09299 0L5.56014 0L3.92936 14.721L2.5202 0L0 0L2.07598 19.047L5.65852 19.047L7.31414 3.681L8.99461 19.047L12.5771 19.047L14.6531 0L12.1329 0Z" transform="translate(55.59057 0.3237)" id="Fill-85" fill="#FFFFFF" fill-rule="evenodd" stroke="none" />
      <path d="M3.28739 12.408L4.39942 2.909L5.51045 12.408L3.28739 12.408ZM2.54604 0L0 19.047L2.52119 19.047L3.01609 14.82L5.80759 14.82L6.30149 19.047L8.82169 19.047L6.2518 0L2.54604 0Z" transform="translate(70.2435 0.3239)" id="Fill-86" fill="#FFFFFF" fill-rule="evenodd" stroke="none" />
      <path d="M2.5202 0L0 0L0 19.047L5.5353 19.047L5.5353 16.635L2.5202 16.635L2.5202 0Z" transform="translate(80.12833 0.3237)" id="Fill-87" fill="#FFFFFF" fill-rule="evenodd" stroke="none" />
      <path d="M2.51921 0L0 0L0 19.047L5.5343 19.047L5.5343 16.635L2.51921 16.635L2.51921 0Z" transform="translate(86.82564 0.3237)" id="Fill-88" fill="#FFFFFF" fill-rule="evenodd" stroke="none" />
      <path d="M5.28685 15.392C5.28685 16.785 4.59519 17.283 3.90253 17.283C3.21087 17.283 2.5202 16.785 2.5202 15.392L2.5202 4.302C2.5202 2.91 3.21087 2.413 3.90253 2.413C4.59519 2.413 5.28685 2.91 5.28685 4.302L5.28685 15.392ZM4.0516 0C1.72916 0 0 1.169 0 3.979L0 15.715C0 18.526 1.8027 19.694 3.92837 19.694C6.00436 19.694 7.80805 18.576 7.80805 15.715L7.80805 3.979C7.80805 1.194 6.39888 0 4.0516 0L4.0516 0Z" transform="translate(93.39883 0)" id="Fill-89" fill="#FFFFFF" fill-rule="evenodd" stroke="none" />
      <path d="M12.1329 0L10.7238 14.721L9.09299 0L5.56014 0L3.92837 14.721L2.5202 0L0 0L2.07499 19.047L5.65852 19.047L7.31315 3.681L8.99461 19.047L12.5771 19.047L14.6531 0L12.1329 0Z" transform="translate(102.19488 0.3237)" id="Fill-90" fill="#FFFFFF" fill-rule="evenodd" stroke="none" />
    </g>
  </g>
</svg>